<svg width="38" height="40" viewBox="0 0 38 40" fill="none" xmlns="http://www.w3.org/2000/svg">
<path fill-rule="evenodd" clip-rule="evenodd" d="M6.99454 5.37548C7.84827 4.68624 9.09467 4.98809 9.63934 5.93642C10.1384 6.80174 9.86734 7.89094 9.10734 8.53993C7.44121 9.95592 6.10398 11.7137 5.18775 13.6921C4.27153 15.6706 3.79807 17.8228 3.8 20.0004C3.79807 22.178 4.27153 24.3301 5.18775 26.3086C6.10398 28.2871 7.44121 30.0448 9.10734 31.4608C9.86734 32.1098 10.1384 33.1965 9.63934 34.0618C9.09467 35.0127 7.84827 35.3145 6.99454 34.6228C4.80758 32.8548 3.04502 30.6249 1.83508 28.0955C0.625138 25.5661 -0.00175371 22.8006 5.44064e-06 20.0004C-0.00213035 17.1997 0.624581 14.4338 1.83453 11.9039C3.04449 9.37398 4.80725 7.14375 6.99454 5.37548ZM28.3607 5.93642C27.8616 6.80174 28.1327 7.89094 28.8927 8.53993C30.5588 9.95592 31.896 11.7137 32.8122 13.6921C33.7285 15.6706 34.2019 17.8228 34.2 20.0004C34.2019 22.178 33.7285 24.3301 32.8122 26.3086C31.896 28.2871 30.5588 30.0448 28.8927 31.4608C28.1327 32.1098 27.8616 33.1965 28.3607 34.0618C28.9053 35.0127 30.1517 35.3145 31.0055 34.6228C33.1924 32.8548 34.955 30.6249 36.1649 28.0955C37.3749 25.5661 38.0018 22.8006 38 20.0004C38.0021 17.1997 37.3754 14.4338 36.1655 11.9039C34.9555 9.37398 33.1928 7.14375 31.0055 5.37548C30.1517 4.68624 28.9053 4.98809 28.3607 5.93642ZM10.7895 12.1471C11.5875 11.3245 12.9099 11.6189 13.4799 12.6099C13.9612 13.44 13.7256 14.4815 13.1151 15.226C12.0061 16.5735 11.4002 18.2602 11.4 20.0004C11.4 21.8115 12.0435 23.4742 13.1151 24.7747C13.7256 25.5193 13.9587 26.5607 13.4799 27.3908C12.9099 28.3819 11.5875 28.6762 10.7895 27.8536C8.74313 25.7442 7.5999 22.9293 7.6 20.0004C7.6 16.9491 8.816 14.1821 10.792 12.1471M24.5227 12.6099C24.0413 13.44 24.2744 14.4815 24.8875 15.226C25.9565 16.524 26.6 18.1892 26.6 20.0004C26.6 21.8115 25.9565 23.4742 24.8849 24.7747C24.2719 25.5193 24.0413 26.5607 24.5201 27.3908C25.0901 28.3819 26.4125 28.6762 27.2105 27.8536C29.2569 25.7442 30.4001 22.9293 30.4 20.0004C30.4 16.9491 29.184 14.1821 27.208 12.1471C26.4125 11.3245 25.0901 11.6189 24.5201 12.6099" fill="black" fill-opacity="0.75"/>
<path fill-rule="evenodd" clip-rule="evenodd" d="M25.9267 0.290978C26.2245 0.404287 26.4974 0.57628 26.7298 0.797134C26.9623 1.01799 27.1498 1.28338 27.2817 1.57815C27.4135 1.87292 27.4871 2.1913 27.4982 2.51511C27.5093 2.83892 27.4578 3.16181 27.3465 3.46535L14.7104 37.8874C14.5989 38.191 14.4299 38.4692 14.2129 38.7062C13.996 38.9432 13.7354 39.1343 13.4461 39.2686C13.1568 39.403 12.8443 39.4779 12.5266 39.4892C12.2089 39.5004 11.8921 39.4478 11.5944 39.3343C11.2967 39.2207 11.0239 39.0485 10.7915 38.8275C10.5591 38.6064 10.3717 38.3408 10.24 38.0459C10.1083 37.751 10.0349 37.4325 10.024 37.1086C10.013 36.7847 10.0648 36.4618 10.1763 36.1583L22.8124 1.73946C22.9236 1.43591 23.0924 1.15765 23.3092 0.920572C23.5259 0.683494 23.7863 0.492242 24.0755 0.357736C24.3647 0.223229 24.677 0.148104 24.9947 0.13665C25.3123 0.125195 25.629 0.177636 25.9267 0.290978Z" fill="black"/>
</svg>
