<svg width="114" height="100" viewBox="0 0 114 100" fill="none" xmlns="http://www.w3.org/2000/svg">
<path d="M0 14.2857C0 10.4969 1.50095 6.86328 4.17265 4.18419C6.84436 1.5051 10.468 0 14.2463 0H99.7243C103.503 0 107.126 1.5051 109.798 4.18419C112.47 6.86328 113.971 10.4969 113.971 14.2857V85.7143C113.971 89.5031 112.47 93.1367 109.798 95.8158C107.126 98.4949 103.503 100 99.7243 100H14.2463C10.468 100 6.84436 98.4949 4.17265 95.8158C1.50095 93.1367 0 89.5031 0 85.7143V14.2857ZM7.12316 78.5714V85.7143C7.12316 87.6087 7.87364 89.4255 9.20949 90.765C10.5453 92.1046 12.3571 92.8571 14.2463 92.8571H99.7243C101.613 92.8571 103.425 92.1046 104.761 90.765C106.097 89.4255 106.847 87.6087 106.847 85.7143V60.7143L79.9432 46.8071C79.2753 46.4716 78.5189 46.3552 77.7813 46.4744C77.0437 46.5936 76.3622 46.9424 75.8332 47.4714L49.4063 73.9714L30.4586 61.3143C29.7745 60.8576 28.954 60.6521 28.1361 60.7329C27.3181 60.8136 26.5532 61.1755 25.971 61.7571L7.12316 78.5714ZM42.739 32.1429C42.739 29.3013 41.6133 26.576 39.6095 24.5667C37.6057 22.5574 34.888 21.4286 32.0542 21.4286C29.2205 21.4286 26.5028 22.5574 24.499 24.5667C22.4952 26.576 21.3695 29.3013 21.3695 32.1429C21.3695 34.9845 22.4952 37.7097 24.499 39.719C26.5028 41.7283 29.2205 42.8571 32.0542 42.8571C34.888 42.8571 37.6057 41.7283 39.6095 39.719C41.6133 37.7097 42.739 34.9845 42.739 32.1429Z" fill="black"/>
</svg>
